<svg xmlns="http://www.w3.org/2000/svg" width="200" height="200" viewBox="0 0 200 200"><path fill-rule="evenodd" clip-rule="evenodd" d="M90.306 122.018c10.157 10.074 20.34 20.127 30.466 30.23 7.352 7.334 7.295 14.635-.082 22.072-2.367 2.387-4.705 4.803-7.154 7.102-5.94 5.572-13.83 5.77-19.596.045-24.054-23.88-48.016-47.854-71.928-71.877-5.414-5.44-5.52-13.866-.09-19.333 23.993-24.15 48.072-48.214 72.235-72.192 5.334-5.293 12.924-5.41 18.645-.514 3.54 3.032 6.896 6.346 9.93 9.88 4.967 5.783 4.55 13.386-.93 18.977-9.408 9.6-18.95 19.066-28.426 28.598-.992.998-1.914 2.063-3.578 3.866h5.494c23.377 0 46.754-.005 70.13.004 8.798.003 13.538 3.678 14.417 12.39.61 6.043.472 12.277-.255 18.314-.914 7.584-5.92 11.42-13.54 11.428-23.96.02-47.923.008-71.883.008H90.76l-.454 1.004z"/></svg>