<svg xmlns="http://www.w3.org/2000/svg" width="190" height="190" viewBox="0 0 190 190"><g fill-rule="evenodd" clip-rule="evenodd"><path d="M72.07 7.197c.465 15.905.963 31.81 1.32 47.717.028 1.172-.628 2.948-1.527 3.46-7.105 4.05-10.038 12.57-5.857 20.802 9.185 18.084 18.923 35.89 28.69 53.67 1.405 2.56 3.925 4.835 6.458 6.368 3.892 2.354 8.085 1.144 12.118-.413.948-.364 2.51-.534 3.182-.013 12.73 9.887 25.367 19.893 38.85 30.524-5.61 2.563-10.584 5.003-15.698 7.108-3.83 1.576-7.838 2.72-11.767 4.058h-11.952s-13.966-4.603-20.113-8.854c-11.696-8.09-20.647-18.83-29.592-29.702C48.7 120.674 39.357 96.29 36.785 69.095c-.612-6.47-1.26-12.94-1.893-19.408v-11.95c.156-.504.39-1 .458-1.517 1.872-14.303 10.716-22.383 23.863-26.416 3.958-1.214 8.123-1.756 12.194-2.606h.663z"/><path d="M163.025 155.913c-1.207 3.368-2.414 6.738-3.75 10.458-13.495-10.75-26.835-21.373-40.593-32.33 3.816-2.002 7.043-4.404 10.65-5.314 2.112-.535 5.212.763 7.2 2.177 6.747 4.792 13.262 9.923 19.726 15.096 2.45 1.957 4.523 4.383 6.768 6.594v3.32zM80.038 7.197c.688.292 1.37.603 2.066.874 6.645 2.59 7.99 4.397 8.144 11.44.194 8.847.325 17.696.422 26.546.062 5.7-6.64 11.15-13.073 9.997l-.88-48.856h3.32zM127.84 180.478c-3.984 0-6.987.638-11.95 0-4.964-.635-13.967-4.603-20.114-8.854"/></g></svg>