<svg xmlns="http://www.w3.org/2000/svg" width="200" height="200" viewBox="0 0 200 200"><g fill-rule="evenodd" clip-rule="evenodd"><path d="M111.45 10.58v54.965h55.057v102.533c0 5.147.01 10.292-.01 15.438-.017 4.264-2.874 7.116-7.1 7.117-38.624 0-77.244 0-115.865.004-4.425 0-7.104-2.534-7.116-6.988-.045-16.542-.034-33.085-.037-49.628-.004-20.256.002-40.51 0-60.765 0-18.562-.022-37.124.003-55.685.006-4.374 2.828-7.013 7.376-7.024 7.684-.018 15.37-.013 23.054-.01 14.002.01 28.004.028 42.008.04h2.627zM51.47 170.502h99.835v-9.725H51.47v9.725zm.008-80.033h99.79v-9.65H51.48v9.65zm-.004 19.98h99.763v-9.7H51.474v9.7zm99.836 10.218H51.528v9.69h99.782v-9.69zm-99.953 19.93c0 2.89.063 5.553-.027 8.213-.047 1.352.54 1.673 1.732 1.647 2.41-.05 4.82-.027 7.23-.027 27.942.01 55.885.02 83.83.027 2.378.002 4.756 0 7.17 0v-9.86H51.358z"/><path d="M166.358 55.606h-44.86V10.7c2.438-.296 4.82-.19 6.754 1.736 12.022 12 24.022 24.02 36.05 36.015 1.98 1.976 2.438 4.32 2.056 7.156z"/></g></svg>