<svg xmlns="http://www.w3.org/2000/svg" width="200" height="200" viewBox="0 0 200 200"><g fill-rule="evenodd" clip-rule="evenodd"><path d="M101.33 14.388c20.61 18.25 41.217 36.5 61.824 54.746 8.247 7.3 16.484 14.61 24.76 21.878 1.248 1.095 2.683 1.978 4.03 2.958v.788l-9.668 10.205-81.324-71.83C73.79 57.124 46.774 80.986 19.627 104.96L9.93 94.757v-.788c1.443-1.07 2.97-2.045 4.316-3.227C22.23 83.74 30.178 76.697 38.13 69.657c20.806-18.42 41.608-36.846 62.41-55.27h.79z"/><path d="M101.132 45.575c9.417 8.285 18.87 16.584 28.305 24.908 10.82 9.55 21.577 19.173 32.478 28.632 2.073 1.797 2.933 3.608 2.923 6.366-.1 24.547-.052 49.095-.062 73.642-.003 6.368-.672 7.02-6.954 7.02-12.06.004-24.118 0-36.723 0v-4.413c-.002-9.846-.073-19.69.036-29.535.04-3.62-1.433-5.396-5.067-5.39-10.11.014-20.217.004-30.324.006-3.364 0-5.022 1.543-4.995 5.054.08 9.845.028 19.69.028 29.535v4.448c-.9.123-1.516.278-2.132.28-12.077.016-24.154-.04-36.23.048-3.645.025-5.318-1.538-5.316-5.15.014-25.727-.022-51.456.075-77.184.005-1.23.81-2.792 1.75-3.63 20.29-18.05 40.654-36.018 61.012-53.992.28-.248.674-.37 1.195-.645zM37.28 59.71V26.424h22.3c0 4.1.055 8.233-.058 12.363-.018.645-.698 1.382-1.248 1.884-6.77 6.178-13.572 12.32-20.994 19.04z"/></g></svg>