<svg xmlns="http://www.w3.org/2000/svg" width="200" height="200" viewBox="0 0 200 200"><path fill-rule="evenodd" clip-rule="evenodd" d="M31.727 188.22c-1.08-9.19-3.042-18.45-3.108-27.722-.325-45.85-.148-91.7-.148-137.55v-10.12h8.458c36.156 0 72.317-.31 108.467.242 7.905.12 15.976 2.712 23.52 5.42 2.463.885 4.923 5.733 4.963 8.8.37 29.024.267 58.056.124 87.085-.01 2.188-.74 5.63-2.188 6.34-6.59 3.247-5.207 8.93-5.22 14.245-.037 17.538-.012 35.08-.012 53.26H31.727zm125.193-63.984l-2.955.17v48.21H41.022c-1.042 7.052 2.787 7.092 7.05 7.084 34.588-.062 69.175-.027 103.76-.054 1.773 0 3.546-.278 5.088-.408v-55.002zm7.43-73.86V26.31h-10.24v24.063h10.24zm-10.06 9.856v22.81h10.048V60.23H154.29zm-.082 32.81v21.514h10.342V93.042h-10.342z"/></svg>