<svg xmlns="http://www.w3.org/2000/svg" width="200" height="200" viewBox="0 0 200 200"><g fill-rule="evenodd" clip-rule="evenodd"><path d="M10.356 185.245c1.09-1.714 2.624-2.178 4.65-2.176 48.197.053 96.395.04 144.592.04 9.806 0 19.61 0 29.418.002 2.57 0 4.038 1.273 3.995 3.456-.04 2.102-1.48 3.308-3.972 3.308H43.544c-9.51 0-19.02-.057-28.528.046-2.034.02-3.556-.49-4.66-2.18v-2.497zM183.384 176.618h-35.912c-.038-.474-.104-.924-.104-1.374-.005-43.804.066-87.606-.087-131.41-.02-5.944 4.64-10.965 10.723-10.625 5.095.284 10.22.04 15.33.064 5.913.03 10.048 4.202 10.05 10.132.004 40.772.002 81.545.002 122.316v10.896zM140.95 176.613h-36.064v-7.98c.006-23.298.023-46.596.008-69.894-.004-5.878 4.32-10.214 10.226-10.183 5.23.027 10.46-.007 15.69.014 5.868.025 10.116 4.286 10.118 10.104.006 25.497.015 50.994.022 76.492v1.447zM55.956 176.606H19.974v-8.232c.007-13.37.012-26.738.023-40.108.005-5.928 4.124-10.065 10.053-10.082 5.407-.015 10.814-.018 16.222 0 5.572.02 9.73 4.114 9.737 9.635.024 15.686.02 31.373.025 47.06 0 .524-.047 1.05-.08 1.726zM98.493 176.617H62.43v-8.027-14.074c-.002-6.13 4.125-10.303 10.234-10.312 5.344-.008 10.69-.016 16.033.027 5.71.048 9.82 4.29 9.8 9.986-.022 6.77-.003 13.538-.003 20.308v2.093z"/></g></svg>