<?xml version="1.0" encoding="utf-8"?>
<!-- Generator: Adobe Illustrator 16.0.0, SVG Export Plug-In . SVG Version: 6.00 Build 0)  -->
<!DOCTYPE svg PUBLIC "-//W3C//DTD SVG 1.1//EN" "http://www.w3.org/Graphics/SVG/1.1/DTD/svg11.dtd">
<svg version="1.1" id="Layer_1" xmlns="http://www.w3.org/2000/svg" xmlns:xlink="http://www.w3.org/1999/xlink" x="0px" y="0px"
	 width="200px" height="200px" viewBox="0 0 200 200" enable-background="new 0 0 200 200" xml:space="preserve">
<g>
	<path fill-rule="evenodd" clip-rule="evenodd" d="M101.33,14.388c20.609,18.249,41.217,36.499,61.824,54.746
		c8.247,7.301,16.484,14.611,24.759,21.878c1.249,1.095,2.684,1.978,4.03,2.958c0,0.263,0,0.525,0,0.788
		c-3.131,3.306-6.262,6.612-9.667,10.205c-27.053-23.895-54.117-47.8-81.324-71.829c-27.162,23.99-54.178,47.851-81.325,71.825
		c-3.26-3.429-6.479-6.815-9.698-10.201c0-0.262,0-0.525,0-0.788c1.444-1.07,2.971-2.045,4.317-3.227
		c7.985-7.002,15.932-14.046,23.883-21.086c20.807-18.421,41.609-36.846,62.412-55.27C100.805,14.388,101.068,14.388,101.33,14.388z
		"/>
	<path fill-rule="evenodd" clip-rule="evenodd" d="M101.132,45.575c9.417,8.285,18.871,16.584,28.305,24.908
		c10.821,9.549,21.577,19.173,32.478,28.632c2.073,1.797,2.933,3.608,2.923,6.366c-0.101,24.546-0.052,49.094-0.062,73.641
		c-0.003,6.368-0.672,7.02-6.954,7.021c-12.06,0.003-24.118,0-36.723,0c0-1.637,0-3.024,0-4.414
		c-0.001-9.845-0.072-19.69,0.037-29.534c0.04-3.621-1.433-5.396-5.067-5.39c-10.108,0.014-20.216,0.004-30.323,0.006
		c-3.364,0-5.022,1.542-4.995,5.053c0.08,9.845,0.027,19.689,0.027,29.535c0,1.417,0,2.834,0,4.449
		c-0.901,0.123-1.516,0.278-2.132,0.279c-12.077,0.017-24.154-0.04-36.231,0.049c-3.644,0.025-5.317-1.538-5.315-5.149
		c0.014-25.728-0.022-51.457,0.075-77.185c0.005-1.229,0.809-2.792,1.749-3.629c20.292-18.05,40.655-36.019,61.013-53.993
		C100.216,45.972,100.611,45.851,101.132,45.575z"/>
	<path fill-rule="evenodd" clip-rule="evenodd" d="M37.28,59.711c0-11.576,0-22.281,0-33.288c7.371,0,14.627,0,22.299,0
		c0,4.099,0.056,8.233-0.057,12.363c-0.018,0.645-0.698,1.382-1.248,1.884C51.505,46.848,44.702,52.991,37.28,59.711z"/>
</g>
</svg>
