<?xml version="1.0" encoding="utf-8"?>
<!-- Generator: Adobe Illustrator 16.0.0, SVG Export Plug-In . SVG Version: 6.00 Build 0)  -->
<!DOCTYPE svg PUBLIC "-//W3C//DTD SVG 1.1//EN" "http://www.w3.org/Graphics/SVG/1.1/DTD/svg11.dtd">
<svg version="1.1" id="Layer_1" xmlns="http://www.w3.org/2000/svg" xmlns:xlink="http://www.w3.org/1999/xlink" x="0px" y="0px"
	 width="200px" height="200px" viewBox="0 0 200 200" enable-background="new 0 0 200 200" xml:space="preserve">
<g>
	<path fill="#B2B2B2" d="M100.058,3.492L8,35.889L22.547,156.5l77.607,42.654l78.01-43.232l14.541-120.606L100.058,3.492z
		 M100.058,3.492"/>
	<path fill="#B52E31" d="M183.523,42.286L99.842,13.75v175.214l70.129-38.812L183.523,42.286z M183.523,42.286"/>
	<path fill="#E23237" d="M18.33,42.8l12.465,107.868l69.046,38.296V13.746L18.33,42.8z M18.33,42.8"/>
	<path fill="#F2F2F2" d="M119.239,100.898L99.995,60.711l-16.942,40.188H119.239z M126.576,117.797H75.564l-11.412,28.544
		l-21.228,0.393L99.843,20.112l58.902,126.622h-19.674L126.576,117.797z M126.576,117.797"/>
	<path fill="#B2B2B2" d="M99.842,20.112l0.152,40.599l19.224,40.219H99.886l-0.043,16.841l26.732,0.026l12.496,28.941l20.312,0.377
		L99.842,20.112z M99.842,20.112"/>
</g>
</svg>
