<?xml version="1.0" encoding="utf-8"?>
<!-- Generator: Adobe Illustrator 16.0.0, SVG Export Plug-In . SVG Version: 6.00 Build 0)  -->
<!DOCTYPE svg PUBLIC "-//W3C//DTD SVG 1.1//EN" "http://www.w3.org/Graphics/SVG/1.1/DTD/svg11.dtd">
<svg version="1.1" id="Layer_1" xmlns="http://www.w3.org/2000/svg" xmlns:xlink="http://www.w3.org/1999/xlink" x="0px" y="0px"
	 width="200px" height="200px" viewBox="0 0 200 200" enable-background="new 0 0 200 200" xml:space="preserve">
<g>
	<path d="M187,100.005C187,52.512,148.499,14,101,14c-47.5,0-86,38.512-86,86.005C15,147.499,53.5,186,101,186
		c15.292,0,29.626-4.027,42.063-11.027c1.4-0.506,2.405-1.833,2.405-3.408c0-1.427-0.829-2.646-2.021-3.241l0.006-0.008
		l-14.975-9.178l-0.003,0.008c-0.63-0.521-1.426-0.847-2.307-0.847c-0.548,0-1.057,0.128-1.52,0.343l-0.034-0.027
		c-7.298,2.958-15.266,4.592-23.616,4.592c-34.856,0-63.204-28.349-63.204-63.201c0-34.847,28.35-63.209,63.204-63.209
		c32.847,0,59.905,25.19,62.916,57.258c-0.015,22.96-10.034,35.759-17.896,35.759c-4.235,0-7.463-2.821-7.463-9.074
		c0-1.21,0.403-3.835,0.605-4.843l9.55-45.677h-0.043c0.028-0.164,0.097-0.313,0.097-0.482c0-1.685-1.366-3.05-3.05-3.05h-16.582
		c-1.506,0-2.7,1.111-2.948,2.55l-0.059-0.003l-1.687,8.139c-4.237-7.663-12.913-13.514-25.215-13.514
		c-23.397,0-45.584,22.392-45.584,49.419c0,19.562,11.699,33.883,31.263,33.883c10.894,0,21.987-6.252,29.046-16.134l0.202,1.209
		c1.411,7.665,22.573,17.375,34.678,17.375c17.545,0,38.108-11.825,38.108-45.71l-0.051-0.022
		C186.945,102.592,187,101.303,187,100.005z M116.172,115.694c-4.44,6.253-11.701,13.313-22.391,13.313
		c-10.287,0-16.539-7.261-16.539-17.744c0-14.728,11.496-29.25,27.633-29.25c9.074,0,14.32,5.85,16.336,10.288L116.172,115.694z"/>
</g>
</svg>
