<?xml version="1.0" encoding="utf-8"?>
<!-- Generator: Adobe Illustrator 16.0.0, SVG Export Plug-In . SVG Version: 6.00 Build 0)  -->
<!DOCTYPE svg PUBLIC "-//W3C//DTD SVG 1.1//EN" "http://www.w3.org/Graphics/SVG/1.1/DTD/svg11.dtd">
<svg version="1.1" id="Layer_1" xmlns="http://www.w3.org/2000/svg" xmlns:xlink="http://www.w3.org/1999/xlink" x="0px" y="0px"
	 width="200px" height="200px" viewBox="0 0 200 200" enable-background="new 0 0 200 200" xml:space="preserve">
<g>
	<path fill-rule="evenodd" clip-rule="evenodd" d="M90.306,122.018c10.157,10.074,20.339,20.127,30.466,30.23
		c7.352,7.334,7.295,14.635-0.082,22.072c-2.367,2.387-4.705,4.803-7.154,7.102c-5.939,5.572-13.83,5.77-19.596,0.045
		c-24.054-23.881-48.016-47.854-71.928-71.877c-5.414-5.439-5.519-13.866-0.089-19.333c23.992-24.149,48.071-48.214,72.234-72.192
		c5.334-5.293,12.924-5.411,18.645-0.514c3.539,3.031,6.896,6.345,9.93,9.879c4.967,5.783,4.551,13.386-0.93,18.977
		c-9.408,9.599-18.949,19.066-28.426,28.598c-0.992,0.998-1.914,2.063-3.578,3.866c2.428,0,3.961,0,5.494,0
		c23.377,0,46.754-0.006,70.131,0.003c8.797,0.003,13.537,3.678,14.416,12.389c0.611,6.044,0.473,12.278-0.254,18.315
		c-0.914,7.584-5.92,11.42-13.539,11.428c-23.961,0.021-47.924,0.008-71.884,0.008c-1.134,0-2.268,0-3.402,0
		C90.608,121.35,90.457,121.684,90.306,122.018z"/>
</g>
</svg>
