<?xml version="1.0" encoding="utf-8"?>
<!-- Generator: Adobe Illustrator 16.0.0, SVG Export Plug-In . SVG Version: 6.00 Build 0)  -->
<!DOCTYPE svg PUBLIC "-//W3C//DTD SVG 1.1//EN" "http://www.w3.org/Graphics/SVG/1.1/DTD/svg11.dtd">
<svg version="1.1" id="Layer_1" xmlns="http://www.w3.org/2000/svg" xmlns:xlink="http://www.w3.org/1999/xlink" x="0px" y="0px"
	 width="200px" height="200px" viewBox="0 0 200 200" enable-background="new 0 0 200 200" xml:space="preserve">
<g>
	<path fill-rule="evenodd" clip-rule="evenodd" d="M10.356,185.245c1.09-1.714,2.624-2.178,4.65-2.176
		c48.197,0.054,96.395,0.042,144.592,0.042c9.806,0,19.611,0,29.418,0.001c2.57,0.001,4.038,1.273,3.995,3.456
		c-0.042,2.102-1.482,3.308-3.973,3.308c-48.498,0.001-96.996,0.001-145.494,0c-9.509,0-19.02-0.057-28.528,0.046
		c-2.034,0.021-3.556-0.489-4.661-2.18C10.356,186.91,10.356,186.077,10.356,185.245z"/>
	<path fill-rule="evenodd" clip-rule="evenodd" d="M183.384,176.618c-12.049,0-23.915,0-35.912,0
		c-0.038-0.474-0.104-0.924-0.104-1.374c-0.005-43.804,0.066-87.606-0.087-131.409c-0.021-5.945,4.638-10.966,10.722-10.626
		c5.095,0.285,10.219,0.04,15.331,0.065c5.912,0.029,10.047,4.202,10.048,10.132c0.005,40.772,0.003,81.545,0.003,122.316
		C183.384,169.286,183.384,172.849,183.384,176.618z"/>
	<path fill-rule="evenodd" clip-rule="evenodd" d="M140.95,176.613c-12.078,0-23.943,0-36.064,0c0-2.684,0-5.331,0-7.979
		c0.006-23.299,0.023-46.597,0.008-69.895c-0.004-5.877,4.32-10.213,10.226-10.182c5.23,0.027,10.461-0.007,15.691,0.014
		c5.867,0.024,10.115,4.285,10.117,10.103c0.006,25.497,0.015,50.994,0.022,76.492C140.95,175.578,140.95,175.99,140.95,176.613z"/>
	<path fill-rule="evenodd" clip-rule="evenodd" d="M55.956,176.606c-12.055,0-23.917,0-35.982,0c0-2.803-0.001-5.518,0-8.232
		c0.007-13.369,0.012-26.738,0.023-40.108c0.005-5.928,4.124-10.065,10.053-10.082c5.407-0.015,10.814-0.018,16.222,0.001
		c5.572,0.019,9.729,4.113,9.737,9.634c0.025,15.687,0.022,31.374,0.026,47.062C56.035,175.404,55.988,175.93,55.956,176.606z"/>
	<path fill-rule="evenodd" clip-rule="evenodd" d="M98.493,176.617c-12.13,0-23.987,0-36.063,0c0-2.728,0-5.378,0-8.027
		c0-4.691,0.001-9.383,0-14.074c-0.002-6.131,4.125-10.303,10.234-10.312c5.344-0.008,10.689-0.016,16.033,0.027
		c5.71,0.047,9.821,4.289,9.801,9.985c-0.023,6.769-0.004,13.538-0.004,20.308C98.493,175.168,98.493,175.812,98.493,176.617z"/>
</g>
</svg>
