<?xml version="1.0" encoding="utf-8"?>
<!-- Generator: Adobe Illustrator 16.0.0, SVG Export Plug-In . SVG Version: 6.00 Build 0)  -->
<!DOCTYPE svg PUBLIC "-//W3C//DTD SVG 1.1//EN" "http://www.w3.org/Graphics/SVG/1.1/DTD/svg11.dtd">
<svg version="1.1" id="Layer_1" xmlns="http://www.w3.org/2000/svg" xmlns:xlink="http://www.w3.org/1999/xlink" x="0px" y="0px"
	 width="190px" height="190px" viewBox="0 0 190 190" enable-background="new 0 0 190 190" xml:space="preserve">
<g>
	<path fill-rule="evenodd" clip-rule="evenodd" d="M72.07,7.197c0.465,15.905,0.963,31.81,1.321,47.717
		c0.027,1.172-0.629,2.948-1.528,3.46c-7.105,4.05-10.038,12.571-5.857,20.802c9.185,18.084,18.923,35.891,28.69,53.671
		c1.405,2.559,3.925,4.834,6.458,6.367c3.892,2.354,8.085,1.144,12.118-0.413c0.948-0.365,2.51-0.535,3.182-0.014
		c12.73,9.887,25.367,19.893,38.851,30.524c-5.612,2.562-10.585,5.002-15.699,7.107c-3.83,1.576-7.838,2.72-11.767,4.058
		c-3.984,0-11.951,0-11.951,0s-13.966-4.603-20.113-8.854c-11.696-8.091-20.647-18.831-29.592-29.702
		C48.7,120.674,39.357,96.289,36.785,69.095c-0.612-6.471-1.261-12.939-1.893-19.408c0-3.982,0-7.966,0-11.95
		c0.156-0.504,0.391-1,0.458-1.517c1.872-14.303,10.716-22.383,23.863-26.416c3.958-1.214,8.123-1.756,12.194-2.606
		C71.628,7.197,71.85,7.197,72.07,7.197z"/>
	<path fill-rule="evenodd" clip-rule="evenodd" d="M163.025,155.913c-1.207,3.368-2.414,6.738-3.749,10.458
		c-13.496-10.75-26.836-21.374-40.594-32.332c3.816-2.001,7.043-4.403,10.649-5.313c2.113-0.535,5.213,0.763,7.201,2.177
		c6.747,4.792,13.262,9.923,19.726,15.096c2.449,1.958,4.523,4.384,6.768,6.595C163.025,153.7,163.025,154.805,163.025,155.913z"/>
	<path fill-rule="evenodd" clip-rule="evenodd" d="M80.038,7.197c0.688,0.292,1.37,0.603,2.066,0.874
		c6.645,2.59,7.989,4.396,8.144,11.438c0.194,8.848,0.325,17.697,0.422,26.547c0.062,5.7-6.639,11.149-13.073,9.997
		c-0.292-16.187-0.585-32.521-0.88-48.856C77.825,7.197,78.932,7.197,80.038,7.197z"/>
	<path fill-rule="evenodd" clip-rule="evenodd" d="M127.84,180.478c-3.984,0-6.987,0.638-11.951,0
		c-4.963-0.635-13.966-4.603-20.113-8.854"/>
</g>
</svg>
