<?xml version="1.0" encoding="utf-8"?>
<!-- Generator: Adobe Illustrator 16.0.0, SVG Export Plug-In . SVG Version: 6.00 Build 0)  -->
<!DOCTYPE svg PUBLIC "-//W3C//DTD SVG 1.1//EN" "http://www.w3.org/Graphics/SVG/1.1/DTD/svg11.dtd">
<svg version="1.1" id="Layer_1" xmlns="http://www.w3.org/2000/svg" xmlns:xlink="http://www.w3.org/1999/xlink" x="0px" y="0px"
	 width="200px" height="200px" viewBox="0 0 200 200" enable-background="new 0 0 200 200" xml:space="preserve">
<g>
	<path fill-rule="evenodd" clip-rule="evenodd" d="M111.449,10.579c0,18.462,0,36.604,0,54.966c18.378,0,36.574,0,55.058,0
		c0,3.383,0,6.552,0,9.723c-0.001,30.938,0,61.874-0.001,92.811c0,5.146,0.01,10.291-0.009,15.437
		c-0.017,4.264-2.874,7.116-7.101,7.117c-38.623,0.001-77.243,0.001-115.864,0.004c-4.425,0-7.104-2.534-7.116-6.988
		c-0.045-16.541-0.034-33.084-0.037-49.627c-0.003-20.256,0.003-40.51,0.002-60.765c-0.001-18.562-0.023-37.124,0.002-55.685
		c0.006-4.374,2.828-7.013,7.376-7.024c7.685-0.018,15.371-0.013,23.055-0.009c14.002,0.01,28.004,0.027,42.008,0.04
		C109.595,10.579,110.369,10.579,111.449,10.579z M51.469,170.503c33.329,0,66.544,0,99.836,0c0-3.288,0-6.451,0-9.725
		c-33.325,0-66.551,0-99.836,0C51.469,164.081,51.469,167.237,51.469,170.503z M51.478,90.47c33.331,0,66.546,0,99.791,0
		c0-3.338,0-6.492,0-9.65c-33.314,0-66.491,0-99.791,0C51.478,84.097,51.478,87.25,51.478,90.47z M51.474,110.451
		c33.333,0,66.545,0,99.763,0c0-3.345,0-6.549,0-9.701c-33.337,0-66.508,0-99.763,0C51.474,104.023,51.474,107.177,51.474,110.451z
		 M151.31,120.668c-33.364,0-66.545,0-99.782,0c0,3.303,0,6.501,0,9.69c33.345,0,66.516,0,99.782,0
		C151.31,127.086,151.31,123.98,151.31,120.668z M51.357,140.597c0,2.89,0.063,5.554-0.027,8.214
		c-0.047,1.351,0.54,1.672,1.732,1.646c2.409-0.051,4.819-0.027,7.23-0.027c27.942,0.009,55.885,0.019,83.829,0.027
		c2.379,0.002,4.757,0,7.172,0c0-3.456,0-6.613,0-9.859C117.995,140.597,84.806,140.597,51.357,140.597z"/>
	<path fill-rule="evenodd" clip-rule="evenodd" d="M166.358,55.606c-15.037,0-29.864,0-44.86,0c0-14.944,0-29.813,0-44.905
		c2.438-0.297,4.821-0.191,6.754,1.735c12.022,11.999,24.022,24.02,36.051,36.015C166.283,50.426,166.74,52.77,166.358,55.606z"/>
</g>
</svg>
