<?xml version="1.0" encoding="utf-8"?>
<!-- Generator: Adobe Illustrator 16.0.0, SVG Export Plug-In . SVG Version: 6.00 Build 0)  -->
<!DOCTYPE svg PUBLIC "-//W3C//DTD SVG 1.1//EN" "http://www.w3.org/Graphics/SVG/1.1/DTD/svg11.dtd">
<svg version="1.1" id="Layer_1" xmlns="http://www.w3.org/2000/svg" xmlns:xlink="http://www.w3.org/1999/xlink" x="0px" y="0px"
	 width="200px" height="200px" viewBox="0 0 200 200" enable-background="new 0 0 200 200" xml:space="preserve">
<g>
	<path fill-rule="evenodd" clip-rule="evenodd" d="M31.727,188.221c-1.08-9.19-3.042-18.45-3.108-27.723
		c-0.324-45.849-0.147-91.701-0.147-137.551c0-3.08,0-6.161,0-10.119c3.383,0,5.92,0,8.458,0c36.156,0,72.317-0.309,108.467,0.242
		c7.905,0.12,15.976,2.712,23.521,5.421c2.462,0.884,4.922,5.732,4.962,8.799c0.369,29.024,0.267,58.056,0.124,87.085
		c-0.011,2.188-0.739,5.629-2.188,6.341c-6.589,3.246-5.207,8.928-5.219,14.244c-0.038,17.538-0.013,35.079-0.013,53.26
		C122.014,188.221,77.89,188.221,31.727,188.221z M156.92,124.236c-0.982,0.057-1.969,0.113-2.955,0.17c0,15.724,0,31.447,0,48.21
		c-38.378,0-75.689,0-112.943,0c-1.042,7.052,2.787,7.092,7.051,7.084c34.587-0.062,69.174-0.027,103.759-0.054
		c1.773-0.001,3.546-0.278,5.088-0.408C156.92,160.63,156.92,142.434,156.92,124.236z M164.351,50.375c0-8.486,0-16.374,0-24.063
		c-3.883,0-7.093,0-10.241,0c0,8.363,0,16.071,0,24.063C157.636,50.375,160.696,50.375,164.351,50.375z M154.291,60.232
		c0,7.987,0,15.604,0,22.809c3.909,0,7.156,0,10.047,0c0-8.074,0-15.5,0-22.809C160.594,60.232,157.534,60.232,154.291,60.232z
		 M154.208,93.042c0,7.515,0,14.591,0,21.514c3.81,0,7.035,0,10.342,0c0-7.427,0-14.309,0-21.514
		C160.867,93.042,157.653,93.042,154.208,93.042z"/>
</g>
</svg>
